<svg xmlns="http://www.w3.org/2000/svg" xmlns:xlink="http://www.w3.org/1999/xlink" version="1.1" width="256" height="256" viewBox="0 0 256 256" xml:space="preserve">
<g style="stroke: none; stroke-width: 0; stroke-dasharray: none; stroke-linecap: butt; stroke-linejoin: miter; stroke-miterlimit: 10; fill: none; fill-rule: nonzero; opacity: 1;" transform="translate(1.4065934065934016 1.4065934065934016) scale(2.81 2.81)">
	<path fill="#ffffff" d="M 65.293 45 c 0 -4.936 -0.46 -9.7 -1.294 -14.127 H 47 v 28.254 h 16.999 C 64.833 54.699 65.293 49.936 65.293 45 z" style="stroke: none; stroke-width: 1; stroke-dasharray: none; stroke-linecap: butt; stroke-linejoin: miter; stroke-miterlimit: 10; fill: rgb(0,0,0); fill-rule: nonzero; opacity: 1;" transform=" matrix(1 0 0 1 0 0) " stroke-linecap="round"/>
	<path fill="#ffffff" d="M 47 4.21 v 22.663 h 16.119 C 60.033 14.61 53.974 5.663 47 4.21 z" style="stroke: none; stroke-width: 1; stroke-dasharray: none; stroke-linecap: butt; stroke-linejoin: miter; stroke-miterlimit: 10; fill: rgb(0,0,0); fill-rule: nonzero; opacity: 1;" transform=" matrix(1 0 0 1 0 0) " stroke-linecap="round"/>
	<path fill="#ffffff" d="M 47 85.79 c 6.974 -1.453 13.033 -10.4 16.119 -22.663 H 47 V 85.79 z" style="stroke: none; stroke-width: 1; stroke-dasharray: none; stroke-linecap: butt; stroke-linejoin: miter; stroke-miterlimit: 10; fill: rgb(0,0,0); fill-rule: nonzero; opacity: 1;" transform=" matrix(1 0 0 1 0 0) " stroke-linecap="round"/>
	<path fill="#ffffff" d="M 87.725 59.127 C 89.194 54.683 90 49.937 90 45 c 0 -4.937 -0.806 -9.683 -2.275 -14.127 H 68.11 C 68.876 35.3 69.293 40.042 69.293 45 c 0 4.958 -0.417 9.7 -1.183 14.127 H 87.725 z" style="stroke: none; stroke-width: 1; stroke-dasharray: none; stroke-linecap: butt; stroke-linejoin: miter; stroke-miterlimit: 10; fill: rgb(0,0,0); fill-rule: nonzero; opacity: 1;" transform=" matrix(1 0 0 1 0 0) " stroke-linecap="round"/>
	<path fill="#ffffff" d="M 22.696 26.873 C 26.393 10.915 34.879 0 45 0 C 26.599 0 10.787 11.05 3.813 26.873 H 22.696 z" style="stroke: none; stroke-width: 1; stroke-dasharray: none; stroke-linecap: butt; stroke-linejoin: miter; stroke-miterlimit: 10; fill: rgb(0,0,0); fill-rule: nonzero; opacity: 1;" transform=" matrix(1 0 0 1 0 0) " stroke-linecap="round"/>
	<path fill="#ffffff" d="M 67.305 26.873 h 18.883 C 79.213 11.05 63.401 0 45 0 C 55.121 0 63.608 10.915 67.305 26.873 z" style="stroke: none; stroke-width: 1; stroke-dasharray: none; stroke-linecap: butt; stroke-linejoin: miter; stroke-miterlimit: 10; fill: rgb(0,0,0); fill-rule: nonzero; opacity: 1;" transform=" matrix(1 0 0 1 0 0) " stroke-linecap="round"/>
	<path fill="#ffffff" d="M 43 4.21 c -6.974 1.453 -13.032 10.4 -16.118 22.663 H 43 V 4.21 z" style="stroke: none; stroke-width: 1; stroke-dasharray: none; stroke-linecap: butt; stroke-linejoin: miter; stroke-miterlimit: 10; fill: rgb(0,0,0); fill-rule: nonzero; opacity: 1;" transform=" matrix(1 0 0 1 0 0) " stroke-linecap="round"/>
	<path fill="#ffffff" d="M 67.305 63.127 C 63.608 79.084 55.121 90 45 90 c 18.402 0 34.213 -11.051 41.188 -26.873 H 67.305 z" style="stroke: none; stroke-width: 1; stroke-dasharray: none; stroke-linecap: butt; stroke-linejoin: miter; stroke-miterlimit: 10; fill: rgb(0,0,0); fill-rule: nonzero; opacity: 1;" transform=" matrix(1 0 0 1 0 0) " stroke-linecap="round"/>
	<path fill="#ffffff" d="M 22.696 63.127 H 3.813 C 10.787 78.949 26.598 90 45 90 C 34.879 90 26.392 79.084 22.696 63.127 z" style="stroke: none; stroke-width: 1; stroke-dasharray: none; stroke-linecap: butt; stroke-linejoin: miter; stroke-miterlimit: 10; fill: rgb(0,0,0); fill-rule: nonzero; opacity: 1;" transform=" matrix(1 0 0 1 0 0) " stroke-linecap="round"/>
	<path fill="#ffffff" d="M 43 30.873 H 26.002 C 25.168 35.3 24.708 40.064 24.708 45 c 0 4.936 0.46 9.699 1.294 14.127 H 43 V 30.873 z" style="stroke: none; stroke-width: 1; stroke-dasharray: none; stroke-linecap: butt; stroke-linejoin: miter; stroke-miterlimit: 10; fill: rgb(0,0,0); fill-rule: nonzero; opacity: 1;" transform=" matrix(1 0 0 1 0 0) " stroke-linecap="round"/>
	<path fill="#ffffff" d="M 43 85.79 V 63.127 H 26.882 C 29.968 75.39 36.026 84.337 43 85.79 z" style="stroke: none; stroke-width: 1; stroke-dasharray: none; stroke-linecap: butt; stroke-linejoin: miter; stroke-miterlimit: 10; fill: rgb(0,0,0); fill-rule: nonzero; opacity: 1;" transform=" matrix(1 0 0 1 0 0) " stroke-linecap="round"/>
	<path fill="#ffffff" d="M 2.275 30.873 C 0.806 35.317 0 40.063 0 45 c 0 4.937 0.806 9.683 2.275 14.127 H 21.89 C 21.125 54.7 20.708 49.958 20.708 45 c 0 -4.958 0.417 -9.7 1.183 -14.127 H 2.275 z" style="stroke: none; stroke-width: 1; stroke-dasharray: none; stroke-linecap: butt; stroke-linejoin: miter; stroke-miterlimit: 10; fill: rgb(0,0,0); fill-rule: nonzero; opacity: 1;" transform=" matrix(1 0 0 1 0 0) " stroke-linecap="round"/>
</g>
</svg>